<svg width="14" height="14" viewBox="0 0 14 14" fill="none" xmlns="http://www.w3.org/2000/svg">
<path d="M4.0835 9.92448L6.65775 9.91573L12.2764 4.35073C12.4969 4.13023 12.6182 3.83739 12.6182 3.52589C12.6182 3.21439 12.4969 2.92156 12.2764 2.70106L11.3512 1.77589C10.9102 1.33489 10.1408 1.33723 9.70333 1.77414L4.0835 7.34031V9.92448ZM10.5264 2.60073L11.4533 3.52414L10.5217 4.44698L9.59658 3.52239L10.5264 2.60073ZM5.25016 7.82681L8.76766 4.34256L9.69283 5.26773L6.17591 8.75081L5.25016 8.75373V7.82681Z" fill="#EF8730"/>
<path d="M2.91667 12.25H11.0833C11.7267 12.25 12.25 11.7267 12.25 11.0833V6.027L11.0833 7.19367V11.0833H4.75883C4.74367 11.0833 4.72792 11.0892 4.71275 11.0892C4.6935 11.0892 4.67425 11.0839 4.65442 11.0833H2.91667V2.91667H6.91075L8.07742 1.75H2.91667C2.27325 1.75 1.75 2.27325 1.75 2.91667V11.0833C1.75 11.7267 2.27325 12.25 2.91667 12.25Z" fill="#EF8730"/>
</svg>
