<svg width="13" height="13" viewBox="0 0 13 13" fill="none" xmlns="http://www.w3.org/2000/svg">
<rect y="9.3916" width="13" height="1.51351" rx="0.756757" fill="#323FF5"/>
<path d="M1.75684 6.94588C1.75684 4.32626 3.88046 2.20264 6.50008 2.20264C9.1197 2.20264 11.2433 4.32626 11.2433 6.94588V9.39183H1.75684V6.94588Z" fill="#323FF5"/>
<path d="M5.62183 1.29054C5.62183 0.853937 5.97576 0.5 6.41237 0.5C6.84897 0.5 7.20291 0.853937 7.20291 1.29054V2.58108H5.62183V1.29054Z" fill="#323FF5"/>
<path d="M7.5542 10.8986C7.5542 11.5293 7.04296 12.0405 6.41231 12.0405C5.78166 12.0405 5.27042 11.5293 5.27042 10.8986L5.27042 9.95945L7.5542 9.95945L7.5542 10.8986Z" fill="#323FF5"/>
</svg>
