<svg width="11" height="12" viewBox="0 0 11 12" fill="none" xmlns="http://www.w3.org/2000/svg">
<path d="M10.7744 2.03193L9.46354 0.721093C9.36196 0.619546 9.22421 0.5625 9.08058 0.5625C8.93695 0.5625 8.7992 0.619546 8.69762 0.721093L6.21679 3.20193C6.1152 3.30348 6.05811 3.44124 6.05808 3.58488V4.89572C6.05808 5.03938 6.11515 5.17715 6.21673 5.27873C6.31831 5.38032 6.45609 5.43738 6.59975 5.43738H7.91058C8.05423 5.43735 8.19198 5.38026 8.29354 5.27868L10.7744 2.79784C10.8759 2.69626 10.933 2.55851 10.933 2.41488C10.933 2.27125 10.8759 2.1335 10.7744 2.03193ZM7.68687 4.35405H7.14141V3.80913L9.08058 1.86997L9.6255 2.41488L7.68687 4.35405ZM9.29183 5.95847C9.14817 5.95847 9.0104 6.01554 8.90881 6.11712C8.80723 6.2187 8.75016 6.35647 8.75016 6.50013V7.7958L7.9485 6.99413C7.66615 6.71215 7.28343 6.55377 6.88439 6.55377C6.48535 6.55377 6.10263 6.71215 5.82029 6.99413L5.4422 7.37168L4.09562 6.02509C3.8136 5.74354 3.43138 5.5854 3.03287 5.5854C2.63436 5.5854 2.25214 5.74354 1.97012 6.02509L1.16683 6.82838V3.7918C1.16697 3.64819 1.22409 3.51049 1.32564 3.40894C1.42719 3.30739 1.56488 3.25028 1.7085 3.25013H4.9585C5.10216 3.25013 5.23993 3.19307 5.34151 3.09148C5.44309 2.9899 5.50016 2.85213 5.50016 2.70847C5.50016 2.56481 5.44309 2.42703 5.34151 2.32545C5.23993 2.22387 5.10216 2.1668 4.9585 2.1668H1.7085C1.27765 2.16723 0.864576 2.33857 0.559923 2.64323C0.255269 2.94788 0.0839263 3.36096 0.0834961 3.7918V10.2918C0.0839263 10.7226 0.255269 11.1357 0.559923 11.4404C0.864576 11.745 1.27765 11.9164 1.7085 11.9168H8.2085C8.63934 11.9164 9.05242 11.745 9.35707 11.4404C9.66172 11.1357 9.83307 10.7226 9.8335 10.2918V6.50013C9.8335 6.35647 9.77643 6.2187 9.67485 6.11712C9.57326 6.01554 9.43549 5.95847 9.29183 5.95847ZM1.7085 10.8335C1.56488 10.8333 1.42719 10.7762 1.32564 10.6747C1.22409 10.5731 1.16697 10.4354 1.16683 10.2918V8.36022L2.73604 6.79101C2.8164 6.71545 2.92256 6.67338 3.03287 6.67338C3.14318 6.67338 3.24934 6.71545 3.3297 6.79101L5.0457 8.50647C5.05058 8.51188 5.0522 8.51838 5.05654 8.52272L7.36783 10.8335H1.7085ZM8.75016 10.2918C8.74745 10.3962 8.71369 10.4975 8.6532 10.5827L6.20812 8.13759L6.5862 7.75951C6.66537 7.68078 6.77248 7.6366 6.88412 7.6366C6.99577 7.6366 7.10287 7.68078 7.18204 7.75951L8.75016 9.32763V10.2918Z" fill="#FF9632"/>
</svg>
