<svg width="8" height="10" viewBox="0 0 8 10" fill="none" xmlns="http://www.w3.org/2000/svg">
<path d="M4.00016 0.787598C4.34605 0.787575 4.67884 0.919912 4.93026 1.15746C5.18168 1.39501 5.33266 1.71976 5.35225 2.0651L5.35433 2.14176H7.54183C7.62101 2.14179 7.69722 2.17187 7.75508 2.22592C7.81293 2.27997 7.84811 2.35397 7.85351 2.43296C7.8589 2.51196 7.83412 2.59005 7.78415 2.65147C7.73419 2.71289 7.66277 2.75306 7.58433 2.76385L7.54183 2.76676H7.21016L6.67683 8.19177C6.65011 8.46223 6.52812 8.71438 6.33266 8.90321C6.13719 9.09204 5.88097 9.20524 5.60975 9.2226L5.53641 9.2251H2.46391C2.19202 9.22509 1.92899 9.1284 1.72183 8.9523C1.51467 8.77621 1.37688 8.53219 1.33308 8.26385L1.3235 8.19135L0.789746 2.76676H0.458496C0.38298 2.76676 0.31002 2.73941 0.253108 2.68978C0.196196 2.64014 0.159183 2.57158 0.148913 2.49676L0.145996 2.45426C0.145999 2.37875 0.173347 2.30579 0.222982 2.24888C0.272618 2.19196 0.341182 2.15495 0.415996 2.14468L0.458496 2.14176H2.646C2.646 1.78262 2.78867 1.43818 3.04262 1.18422C3.29658 0.930268 3.64102 0.787598 4.00016 0.787598ZM6.58225 2.76676H1.41766L1.94558 8.1301C1.95727 8.24977 2.01001 8.36171 2.09484 8.44693C2.17967 8.53214 2.29138 8.58537 2.411 8.5976L2.46391 8.6001H5.53641C5.78641 8.6001 5.9985 8.42302 6.04683 8.1826L6.05516 8.1301L6.58183 2.76676H6.58225ZM4.72933 3.9126C4.80485 3.9126 4.87781 3.93995 4.93472 3.98958C4.99163 4.03922 5.02864 4.10778 5.03891 4.1826L5.04183 4.2251V7.14177C5.04181 7.22094 5.01173 7.29716 4.95767 7.35501C4.90362 7.41287 4.82962 7.44805 4.75063 7.45344C4.67164 7.45884 4.59354 7.43405 4.53212 7.38409C4.4707 7.33412 4.43054 7.2627 4.41975 7.18426L4.41683 7.14177V4.2251C4.41683 4.14222 4.44975 4.06273 4.50836 4.00413C4.56696 3.94552 4.64645 3.9126 4.72933 3.9126ZM3.271 3.9126C3.34651 3.9126 3.41947 3.93995 3.47638 3.98958C3.5333 4.03922 3.57031 4.10778 3.58058 4.1826L3.5835 4.2251V7.14177C3.58347 7.22094 3.55339 7.29716 3.49934 7.35501C3.44529 7.41287 3.37129 7.44805 3.2923 7.45344C3.2133 7.45884 3.13521 7.43405 3.07379 7.38409C3.01237 7.33412 2.97221 7.2627 2.96141 7.18426L2.9585 7.14177V4.2251C2.9585 4.14222 2.99142 4.06273 3.05003 4.00413C3.10863 3.94552 3.18812 3.9126 3.271 3.9126ZM4.00016 1.4126C3.81717 1.4126 3.64086 1.48142 3.50625 1.60538C3.37164 1.72934 3.28855 1.89939 3.2735 2.08176L3.271 2.14176H4.72933C4.72933 1.94838 4.65251 1.76291 4.51576 1.62617C4.37902 1.48942 4.19355 1.4126 4.00016 1.4126Z" fill="#E84444"/>
</svg>
