<svg width="14" height="14" viewBox="0 0 14 14" fill="none" xmlns="http://www.w3.org/2000/svg">
<path d="M12.0557 12.0557H1.94455C1.84141 12.0557 1.7425 12.0966 1.66957 12.1696C1.59664 12.2425 1.55566 12.3414 1.55566 12.4446C1.55566 12.5477 1.59664 12.6466 1.66957 12.7195C1.7425 12.7925 1.84141 12.8334 1.94455 12.8334H12.0557C12.1588 12.8334 12.2577 12.7925 12.3306 12.7195C12.4036 12.6466 12.4446 12.5477 12.4446 12.4446C12.4446 12.3414 12.4036 12.2425 12.3306 12.1696C12.2577 12.0966 12.1588 12.0557 12.0557 12.0557Z" fill="white"/>
<path d="M6.99985 11.4646L11.126 7.33844C11.1897 7.26405 11.223 7.16835 11.2192 7.07048C11.2154 6.9726 11.1748 6.87976 11.1056 6.8105C11.0363 6.74124 10.9435 6.70067 10.8456 6.69689C10.7477 6.69311 10.652 6.7264 10.5776 6.79011L7.38874 9.97511V1.94455C7.38874 1.84141 7.34777 1.7425 7.27484 1.66957C7.20191 1.59664 7.10299 1.55566 6.99985 1.55566C6.89671 1.55566 6.7978 1.59664 6.72487 1.66957C6.65194 1.7425 6.61097 1.84141 6.61097 1.94455V9.97511L3.42597 6.79011C3.3911 6.7494 3.3482 6.71633 3.29995 6.69299C3.25171 6.66965 3.19916 6.65653 3.1456 6.65446C3.09204 6.6524 3.03863 6.66142 2.98873 6.68097C2.93883 6.70052 2.8935 6.73018 2.8556 6.76808C2.8177 6.80598 2.78805 6.8513 2.7685 6.90121C2.74894 6.95111 2.73992 7.00452 2.74199 7.05807C2.74406 7.11163 2.75717 7.16418 2.78052 7.21243C2.80386 7.26068 2.83692 7.30358 2.87763 7.33844L6.99985 11.4646Z" fill="white"/>
</svg>
