<svg width="69" height="25" viewBox="0 0 69 25" fill="none" xmlns="http://www.w3.org/2000/svg">
<g clip-path="url(#clip0)">
<path fill-rule="evenodd" clip-rule="evenodd" d="M15.7904 0.0170898C16.3713 0.0170898 16.9392 0.19548 17.4222 0.529701C17.9053 0.863922 18.2818 1.33896 18.5041 1.89475C18.7264 2.45054 18.7846 3.06212 18.6712 3.65214C18.5579 4.24216 18.2782 4.78413 17.8674 5.20951C17.4566 5.6349 16.9332 5.92459 16.3634 6.04195C15.7936 6.15931 15.203 6.09908 14.6663 5.86886C14.1296 5.63865 13.6708 5.24879 13.3481 4.74859C13.0253 4.2484 12.853 3.66032 12.853 3.05874C12.8533 2.25215 13.1629 1.47868 13.7137 0.908335C14.2645 0.337986 15.0114 0.0174209 15.7904 0.0170898Z" fill="#FF9632"/>
<path d="M27.8341 20.2874C26.4782 20.2874 25.4328 19.8494 24.6977 18.9734C23.9627 18.0973 23.5944 16.8132 23.5928 15.121V8.77539H26.3672V14.8487C26.3672 15.8155 26.557 16.5559 26.9366 17.0697C27.3162 17.5835 27.9141 17.84 28.7304 17.8391C29.091 17.849 29.4492 17.777 29.7801 17.6283C30.1111 17.4797 30.4066 17.2579 30.646 16.9785C31.1494 16.4055 31.4011 15.6048 31.4011 14.5764V8.77539H34.2021V20.0176H31.7256L31.5109 18.1127C31.1799 18.7728 30.6756 19.3227 30.0561 19.6991C29.3814 20.1022 28.6128 20.3057 27.8341 20.2874Z" fill="#4141FF"/>
<path d="M36.8501 20.0152V8.77291H39.3254L39.5667 10.2919C39.9194 9.74807 40.3958 9.30238 40.9539 8.99401C41.5709 8.65895 42.2598 8.49134 42.9564 8.50685C44.6331 8.50685 45.8221 9.1793 46.5234 10.5242C46.9214 9.90054 47.4677 9.39338 48.1096 9.05147C48.7808 8.68627 49.5289 8.49914 50.287 8.50685C51.7024 8.50685 52.7881 8.94529 53.544 9.82219C54.2999 10.6991 54.6791 11.9832 54.6815 13.6745V20.0189H51.8841V13.9418C51.8841 12.975 51.7056 12.2347 51.3485 11.7209C50.9915 11.2071 50.4418 10.9506 49.6995 10.9514C49.3514 10.9388 49.0052 11.01 48.6881 11.1593C48.371 11.3087 48.0917 11.5321 47.872 11.8121C47.4128 12.3867 47.1832 13.1874 47.1832 14.2142V20.0152H44.3786V13.9418C44.3786 12.975 44.196 12.2347 43.8309 11.7209C43.4658 11.2071 42.9029 10.9506 42.1421 10.9514C41.7967 10.9399 41.4535 11.0117 41.1395 11.161C40.8255 11.3104 40.5493 11.5333 40.3327 11.8121C39.8735 12.3867 39.6435 13.1874 39.6427 14.2142V20.0152H36.8501Z" fill="#4141FF"/>
<path d="M57.136 25V8.77494H59.6306L59.937 10.3838C60.3152 9.85818 60.7869 9.41215 61.3267 9.06974C61.9033 8.6925 62.6512 8.50346 63.5704 8.50263C64.5339 8.48664 65.4822 8.75388 66.305 9.27335C67.1087 9.78902 67.766 10.5162 68.2098 11.3806C68.6866 12.3156 68.9272 13.3602 68.9094 14.4173C68.9283 15.471 68.6875 16.5122 68.2098 17.4427C67.7656 18.301 67.108 19.0208 66.305 19.5275C65.4802 20.0399 64.5333 20.303 63.5716 20.287C62.8305 20.3044 62.0959 20.1413 61.4268 19.8111C60.8274 19.5057 60.3146 19.0448 59.9382 18.4733V25H57.136ZM62.9793 17.755C63.3897 17.7674 63.7982 17.6911 64.1787 17.5311C64.5591 17.3711 64.9033 17.1309 65.1892 16.8256C65.773 16.2061 66.065 15.4054 66.065 14.4235C66.065 13.4417 65.773 12.631 65.1892 11.9915C64.9066 11.6803 64.5635 11.4346 64.1826 11.2706C63.8018 11.1065 63.3916 11.0278 62.9793 11.0396C62.0746 11.0396 61.3339 11.3532 60.7573 11.9802C60.1807 12.6073 59.8928 13.4117 59.8936 14.3936C59.8936 15.3754 60.1815 16.1798 60.7573 16.8069C61.3331 17.434 62.0738 17.7479 62.9793 17.7488V17.755Z" fill="#4141FF"/>
<path d="M9.79875 18.9134C7.55829 18.9134 5.40959 17.9918 3.82534 16.3512C2.24109 14.7107 1.35107 12.4857 1.35107 10.1657C1.35107 7.84564 2.24109 5.62063 3.82534 3.98011C5.40959 2.3396 7.55829 1.41797 9.79875 1.41797" fill="#4141FF"/>
<path d="M9.79871 20.3165C7.19961 20.3165 4.70696 19.2473 2.86911 17.3442C1.03127 15.4411 -0.0012207 12.8599 -0.0012207 10.1685C-0.0012207 7.47709 1.03127 4.89591 2.86911 2.99279C4.70696 1.08967 7.19961 0.0205078 9.79871 0.0205078V2.82107C7.91689 2.82107 6.11214 3.59518 4.78149 4.97309C3.45084 6.351 2.70329 8.21984 2.70329 10.1685C2.70329 12.1172 3.45084 13.986 4.78149 15.3639C6.11214 16.7418 7.91689 17.5159 9.79871 17.5159V20.3165Z" fill="#4141FF"/>
<path d="M11.2451 20.3134V17.5129C12.8925 17.5118 14.4884 16.9181 15.7598 15.8333C17.0312 14.7485 17.8991 13.2399 18.2151 11.5657H11.2451V8.76514H21.045V10.1654C21.0419 12.8558 20.0083 15.4351 18.1712 17.3375C16.334 19.2399 13.8432 20.3101 11.2451 20.3134Z" fill="#FF9632"/>
</g>
<defs>
<clipPath id="clip0">
<rect width="69" height="24.9828" fill="white"/>
</clipPath>
</defs>
</svg>
