<svg width="10" height="10" viewBox="0 0 10 10" fill="none" xmlns="http://www.w3.org/2000/svg">
<path d="M9.65576 4.9331L8.16044 3.75302C8.14793 3.74318 8.1329 3.73706 8.11707 3.73537C8.10125 3.73368 8.08526 3.73648 8.07095 3.74345C8.05664 3.75042 8.04459 3.76128 8.03616 3.77479C8.02774 3.78829 8.0233 3.8039 8.02333 3.81982V4.57802H5.42177V1.97646H6.18115C6.25146 1.97646 6.2913 1.89443 6.24794 1.83935L5.06669 0.344038C5.05888 0.333919 5.04884 0.325727 5.03736 0.320091C5.02589 0.314454 5.01327 0.311523 5.00048 0.311523C4.9877 0.311523 4.97508 0.314454 4.9636 0.320091C4.95212 0.325727 4.94209 0.333919 4.93427 0.344038L3.75302 1.83935C3.74318 1.85186 3.73706 1.86689 3.73537 1.88272C3.73368 1.89855 3.73647 1.91453 3.74345 1.92884C3.75042 1.94315 3.76128 1.95521 3.77479 1.96363C3.78829 1.97205 3.8039 1.9765 3.81982 1.97646H4.57802V4.57802H1.97646V3.81865C1.97646 3.74833 1.89443 3.70849 1.83935 3.75185L0.344038 4.9331C0.333919 4.94092 0.325727 4.95095 0.320091 4.96243C0.314454 4.97391 0.311523 4.98652 0.311523 4.99931C0.311523 5.0121 0.314454 5.02471 0.320091 5.03619C0.325727 5.04767 0.333919 5.0577 0.344038 5.06552L1.83818 6.24677C1.89326 6.29013 1.97529 6.25146 1.97529 6.17998V5.42177H4.57685V8.02333H3.81748C3.74716 8.02333 3.70732 8.10537 3.75068 8.16044L4.93193 9.65458C4.96591 9.69794 5.03154 9.69794 5.06435 9.65458L6.2456 8.16044C6.28896 8.10537 6.25029 8.02333 6.1788 8.02333H5.42177V5.42177H8.02333V6.18115C8.02333 6.25146 8.10537 6.2913 8.16044 6.24794L9.65458 5.06669C9.66467 5.05877 9.67285 5.04867 9.67851 5.03716C9.68417 5.02565 9.68716 5.01301 9.68727 5.00018C9.68738 4.98735 9.68461 4.97466 9.67916 4.96305C9.6737 4.95144 9.6657 4.9412 9.65576 4.9331Z" fill="#EF8730"/>
</svg>
