<svg width="12" height="13" viewBox="0 0 12 13" fill="none" xmlns="http://www.w3.org/2000/svg">
<path d="M5.15033 2.34766C3.58232 2.34766 2.31104 3.61894 2.31104 5.18726C2.31104 6.75527 3.58232 8.02656 5.15033 8.02656C6.71802 8.02656 7.9893 6.75527 7.9893 5.18726C7.9893 5.18726 7.9893 5.18663 7.9893 5.18631C7.98611 3.61989 6.71674 2.35084 5.15033 2.34766ZM5.15033 7.72091C3.75042 7.72091 2.6154 6.5859 2.6154 5.18631C2.6154 3.7864 3.75042 2.65171 5.15033 2.65171C6.54991 2.65171 7.68493 3.7864 7.68493 5.18631C7.68206 6.58494 6.54864 7.71805 5.15033 7.72091Z" fill="#FF9632"/>
<path d="M8.74812 7.57332C10.0684 5.58474 9.52623 2.90273 7.53765 1.58305C5.54938 0.262741 2.86737 0.804937 1.54738 2.79289C0.227064 4.78147 0.769261 7.4638 2.75785 8.7838C4.10172 9.67589 5.83114 9.7453 7.24283 8.96304L10.2324 11.9357C10.6211 12.3461 11.2694 12.364 11.6801 11.9749C12.0908 11.5862 12.1083 10.9383 11.7195 10.5272C11.7068 10.5139 11.6937 10.5005 11.6801 10.4878L8.74812 7.57332ZM5.15077 9.19864C2.93391 9.1996 1.13571 7.40236 1.13508 5.18486C1.13476 2.96799 2.93168 1.17012 5.14886 1.16916C7.36604 1.16884 9.16424 2.96577 9.16456 5.18295C9.16456 5.18422 9.16456 5.18486 9.16456 5.18613C9.16233 7.40236 7.36636 9.19864 5.15014 9.20055L5.15077 9.19864ZM11.4655 11.7183C11.1847 11.9975 10.731 11.9975 10.4498 11.7183L7.51059 8.80067C7.91492 8.53578 8.27183 8.2053 8.56728 7.82325L11.4648 10.7033C11.7453 10.9841 11.7453 11.4394 11.4648 11.7202L11.4655 11.7183Z" fill="#FF9632"/>
<ellipse cx="5.14691" cy="5.16491" rx="2.82806" ry="2.91003" fill="#FF9632"/>
</svg>
